<svg xmlns="http://www.w3.org/2000/svg" version="1.1" xmlns:xlink="http://www.w3.org/1999/xlink" viewBox="0 0 200 200"><rect width="200" height="200" fill="url('#gradient')"></rect><defs><linearGradient id="gradient" gradientTransform="rotate(44 0.5 0.5)"><stop offset="0%" stop-color="#27d1bf"></stop><stop offset="100%" stop-color="#0a2580"></stop></linearGradient></defs><g><g fill="#000000" transform="matrix(7.514677103718199,0,0,7.514677103718199,24.853231935778282,139.68069649302564)" stroke="#1d7d80" stroke-width="0"><path d="M3.50-10.57L5.14-3.92L6.81-10.57L10.27-10.57L6.83 0L3.47 0L0.02-10.57L3.50-10.57ZM16.79-2.97L16.79-2.97Q16.79-3.39 16.35-3.64Q15.91-3.90 14.68-4.17Q13.45-4.44 12.65-4.89Q11.85-5.33 11.43-5.97Q11.01-6.60 11.01-7.42L11.01-7.42Q11.01-8.88 12.21-9.82Q13.41-10.76 15.35-10.76L15.35-10.76Q17.44-10.76 18.71-9.81Q19.98-8.87 19.98-7.32L19.98-7.32L16.68-7.32Q16.68-8.59 15.34-8.59L15.34-8.59Q14.82-8.59 14.47-8.31Q14.12-8.02 14.12-7.59L14.12-7.59Q14.12-7.15 14.55-6.88Q14.98-6.60 15.92-6.43Q16.87-6.25 17.58-6.01L17.58-6.01Q19.96-5.19 19.96-3.07L19.96-3.07Q19.96-1.62 18.68-0.71Q17.39 0.20 15.35 0.20L15.35 0.20Q13.99 0.20 12.93-0.29Q11.87-0.78 11.27-1.62Q10.67-2.46 10.67-3.39L10.67-3.39L13.75-3.39Q13.77-2.66 14.24-2.32Q14.71-1.98 15.44-1.98L15.44-1.98Q16.11-1.98 16.45-2.26Q16.79-2.53 16.79-2.97Z"></path></g></g></svg>